<svg width="16" height="17" viewBox="0 0 16 17" fill="none" xmlns="http://www.w3.org/2000/svg">
<g clip-path="url(#clip0_3795_4192)">
<path d="M11.7713 10.3854L10.8287 9.44268L11.7713 8.50002C12.019 8.25239 12.2154 7.95841 12.3494 7.63487C12.4834 7.31132 12.5524 6.96455 12.5524 6.61435C12.5524 6.26415 12.4834 5.91738 12.3494 5.59383C12.2154 5.27029 12.019 4.97631 11.7713 4.72868C11.5237 4.48105 11.2297 4.28462 10.9062 4.15061C10.5827 4.01659 10.2359 3.94761 9.88568 3.94761C9.53548 3.94761 9.18871 4.01659 8.86517 4.15061C8.54162 4.28462 8.24765 4.48105 8.00002 4.72868L7.05735 5.67135L6.11468 4.72868L7.05735 3.78602C7.80956 3.04596 8.82372 2.63312 9.87894 2.63742C10.9342 2.64171 11.9449 3.0628 12.6911 3.80896C13.4372 4.55511 13.8583 5.56588 13.8626 6.6211C13.8669 7.67631 13.4541 8.69048 12.714 9.44268L11.7713 10.3854ZM9.88535 12.2713L8.94268 13.214C8.57236 13.5904 8.13118 13.8898 7.64459 14.0948C7.158 14.2999 6.63563 14.4065 6.1076 14.4087C5.57958 14.4108 5.05635 14.3084 4.56811 14.1073C4.07986 13.9063 3.63626 13.6105 3.26289 13.2371C2.88952 12.8638 2.59376 12.4202 2.39269 11.9319C2.19161 11.4437 2.0892 10.9205 2.09135 10.3924C2.0935 9.86441 2.20017 9.34203 2.40522 8.85544C2.61026 8.36885 2.90962 7.92767 3.28602 7.55735L4.22868 6.61468L5.17135 7.55735L4.22868 8.50002C3.98105 8.74765 3.78462 9.04162 3.65061 9.36517C3.51659 9.68871 3.44761 10.0355 3.44761 10.3857C3.44761 10.7359 3.51659 11.0827 3.65061 11.4062C3.78462 11.7297 3.98105 12.0237 4.22868 12.2713C4.47631 12.519 4.77029 12.7154 5.09383 12.8494C5.41738 12.9834 5.76415 13.0524 6.11435 13.0524C6.46455 13.0524 6.81132 12.9834 7.13487 12.8494C7.45841 12.7154 7.75239 12.519 8.00002 12.2713L8.94268 11.3287L9.88535 12.2713ZM9.88535 5.67135L10.8287 6.61468L6.11468 11.328L5.17135 10.3854L9.88535 5.67202V5.67135ZM3.85002 2.02868L5.13802 1.68335L5.82802 4.26002L4.54068 4.60535L3.85002 2.02935V2.02868ZM10.172 12.7407L11.4593 12.3954L12.15 14.9714L10.862 15.3167L10.172 12.7407ZM1.52868 4.35002L4.10468 5.04068L3.75935 6.32802L1.18335 5.63802L1.52868 4.35002ZM12.2407 10.672L14.8167 11.362L14.4714 12.65L11.8954 11.9593L12.2407 10.672Z" fill="#ABB6B7"/>
</g>
<defs>
<clipPath id="clip0_3795_4192">
<rect width="16" height="16" fill="white" transform="translate(0 0.5)"/>
</clipPath>
</defs>
</svg>
