<svg width="24" height="25" viewBox="0 0 24 25" fill="none" xmlns="http://www.w3.org/2000/svg">
<path d="M21.5324 1.46002L13.2749 8.35622L14.8105 4.29206L21.5324 1.46002Z" fill="#E17726" stroke="#E17726" stroke-width="0.25" stroke-linecap="round" stroke-linejoin="round"/>
<path d="M2.48535 1.46002L10.6693 8.42061L9.20731 4.29206L2.48535 1.46002Z" fill="#E27625" stroke="#E27625" stroke-width="0.25" stroke-linecap="round" stroke-linejoin="round"/>
<path d="M18.5591 17.45L16.3621 21.2383L21.0666 22.7003L22.4143 17.5328L18.5591 17.45Z" fill="#E27625" stroke="#E27625" stroke-width="0.25" stroke-linecap="round" stroke-linejoin="round"/>
<path d="M1.61133 17.5328L2.95081 22.7003L7.64721 21.2383L5.45827 17.45L1.61133 17.5328Z" fill="#E27625" stroke="#E27625" stroke-width="0.25" stroke-linecap="round" stroke-linejoin="round"/>
<path d="M7.3942 11.0503L6.0874 13.2755L10.7429 13.5146L10.5877 7.85968L7.3942 11.0503Z" fill="#E27625" stroke="#E27625" stroke-width="0.25" stroke-linecap="round" stroke-linejoin="round"/>
<path d="M16.6233 11.0504L13.3808 7.79535L13.2747 13.5146L17.9301 13.2755L16.6233 11.0504Z" fill="#E27625" stroke="#E27625" stroke-width="0.25" stroke-linecap="round" stroke-linejoin="round"/>
<path d="M7.64746 21.2383L10.4652 19.7027L8.03952 17.5695L7.64746 21.2383Z" fill="#E27625" stroke="#E27625" stroke-width="0.25" stroke-linecap="round" stroke-linejoin="round"/>
<path d="M13.5525 19.7027L16.3621 21.2383L15.9782 17.5695L13.5525 19.7027Z" fill="#E27625" stroke="#E27625" stroke-width="0.25" stroke-linecap="round" stroke-linejoin="round"/>
<path d="M16.3621 21.2384L13.5525 19.7029L13.7811 21.7625L13.7566 22.6361L16.3621 21.2384Z" fill="#D5BFB2" stroke="#D5BFB2" stroke-width="0.25" stroke-linecap="round" stroke-linejoin="round"/>
<path d="M7.64746 21.2384L10.2611 22.6361L10.2447 21.7625L10.4652 19.7029L7.64746 21.2384Z" fill="#D5BFB2" stroke="#D5BFB2" stroke-width="0.25" stroke-linecap="round" stroke-linejoin="round"/>
<path d="M10.3098 16.2087L7.97388 15.4363L9.62371 14.5812L10.3098 16.2087Z" fill="#233447" stroke="#233447" stroke-width="0.25" stroke-linecap="round" stroke-linejoin="round"/>
<path d="M13.7078 16.2087L14.3939 14.5812L16.0519 15.4363L13.7078 16.2087Z" fill="#233447" stroke="#233447" stroke-width="0.25" stroke-linecap="round" stroke-linejoin="round"/>
<path d="M7.6474 21.2383L8.05581 17.45L5.4585 17.5328L7.6474 21.2383Z" fill="#CC6228" stroke="#CC6228" stroke-width="0.25" stroke-linecap="round" stroke-linejoin="round"/>
<path d="M15.9619 17.45L16.3621 21.2383L18.5592 17.5328L15.9619 17.45Z" fill="#CC6228" stroke="#CC6228" stroke-width="0.25" stroke-linecap="round" stroke-linejoin="round"/>
<path d="M17.9301 13.2755L13.2747 13.5145L13.7075 16.2087L14.3936 14.5811L16.0516 15.4363L17.9301 13.2755Z" fill="#CC6228" stroke="#CC6228" stroke-width="0.25" stroke-linecap="round" stroke-linejoin="round"/>
<path d="M7.97411 15.4363L9.62394 14.5811L10.3101 16.2087L10.7429 13.5145L6.0874 13.2755L7.97411 15.4363Z" fill="#CC6228" stroke="#CC6228" stroke-width="0.25" stroke-linecap="round" stroke-linejoin="round"/>
<path d="M6.0874 13.2755L8.03949 17.5695L7.97411 15.4363L6.0874 13.2755Z" fill="#E27525" stroke="#E27525" stroke-width="0.25" stroke-linecap="round" stroke-linejoin="round"/>
<path d="M16.0518 15.4363L15.9783 17.5695L17.9303 13.2755L16.0518 15.4363Z" fill="#E27525" stroke="#E27525" stroke-width="0.25" stroke-linecap="round" stroke-linejoin="round"/>
<path d="M10.743 13.5145L10.3101 16.2087L10.8573 19.3901L10.9798 15.1972L10.743 13.5145Z" fill="#E27525" stroke="#E27525" stroke-width="0.25" stroke-linecap="round" stroke-linejoin="round"/>
<path d="M13.2749 13.5145L13.0461 15.188L13.1605 19.3901L13.7077 16.2087L13.2749 13.5145Z" fill="#E27525" stroke="#E27525" stroke-width="0.25" stroke-linecap="round" stroke-linejoin="round"/>
<path d="M13.7076 16.2088L13.1604 19.3902L13.5525 19.7028L15.9782 17.5696L16.0517 15.4363L13.7076 16.2088Z" fill="#F5841F" stroke="#F5841F" stroke-width="0.25" stroke-linecap="round" stroke-linejoin="round"/>
<path d="M7.97388 15.4363L8.03926 17.5696L10.465 19.7028L10.857 19.3902L10.3098 16.2088L7.97388 15.4363Z" fill="#F5841F" stroke="#F5841F" stroke-width="0.25" stroke-linecap="round" stroke-linejoin="round"/>
<path d="M13.7568 22.636L13.7813 21.7625L13.5689 21.5602H10.4489L10.2447 21.7625L10.2611 22.636L7.64746 21.2383L8.5622 22.0843L10.4163 23.5279H13.5934L15.4557 22.0843L16.3622 21.2383L13.7568 22.636Z" fill="#C0AC9D" stroke="#C0AC9D" stroke-width="0.25" stroke-linecap="round" stroke-linejoin="round"/>
<path d="M13.5525 19.7028L13.1604 19.3902H10.8571L10.4652 19.7028L10.2446 21.7625L10.4488 21.5602H13.5688L13.7812 21.7625L13.5525 19.7028Z" fill="#161616" stroke="#161616" stroke-width="0.25" stroke-linecap="round" stroke-linejoin="round"/>
<path d="M21.8834 8.80676L22.5777 5.00009L21.5322 1.46002L13.5525 8.1264L16.6235 11.0503L20.9604 12.4756L21.9161 11.2159L21.4995 10.8756L22.1611 10.1953L21.6547 9.75387L22.3163 9.18377L21.8834 8.80676Z" fill="#763E1A" stroke="#763E1A" stroke-width="0.25" stroke-linecap="round" stroke-linejoin="round"/>
<path d="M1.43994 5.00009L2.14236 8.80676L1.69314 9.18377L2.36288 9.75387L1.85649 10.1953L2.51806 10.8756L2.10152 11.2159L3.05713 12.4756L7.39414 11.0503L10.4651 8.1264L2.4854 1.46002L1.43994 5.00009Z" fill="#763E1A" stroke="#763E1A" stroke-width="0.25" stroke-linecap="round" stroke-linejoin="round"/>
<path d="M20.9605 12.4755L16.6235 11.0504L17.9303 13.2755L15.9783 17.5695L18.5592 17.5328H22.4143L20.9605 12.4755Z" fill="#F5841F" stroke="#F5841F" stroke-width="0.25" stroke-linecap="round" stroke-linejoin="round"/>
<path d="M7.39397 11.0504L3.05699 12.4755L1.61133 17.5328H5.45827L8.03919 17.5695L6.08717 13.2755L7.39397 11.0504Z" fill="#F5841F" stroke="#F5841F" stroke-width="0.25" stroke-linecap="round" stroke-linejoin="round"/>
<path d="M13.2747 13.5146L13.5524 8.12633L14.8102 4.29205H9.20728L10.465 8.12633L10.7428 13.5146L10.8489 15.2065L10.8571 19.3902H13.1604L13.1685 15.2065L13.2747 13.5146Z" fill="#F5841F" stroke="#F5841F" stroke-width="0.25" stroke-linecap="round" stroke-linejoin="round"/>
</svg>
