<svg width="24" height="25" viewBox="0 0 24 25" fill="none" xmlns="http://www.w3.org/2000/svg">
<g clip-path="url(#clip0_3803_3717)">
<path d="M22.162 6.156C21.3986 6.4937 20.589 6.71548 19.76 6.814C20.6337 6.29144 21.2877 5.46902 21.6 4.5C20.78 4.988 19.881 5.33 18.944 5.515C18.3146 4.84158 17.4804 4.39497 16.5709 4.24459C15.6615 4.09421 14.7279 4.24849 13.9153 4.68346C13.1026 5.11842 12.4564 5.80969 12.0771 6.6498C11.6978 7.4899 11.6067 8.43178 11.818 9.329C10.1551 9.24566 8.52832 8.81353 7.04328 8.06067C5.55823 7.30781 4.24812 6.25105 3.19799 4.959C2.82628 5.59745 2.63095 6.32323 2.63199 7.062C2.63199 8.512 3.36999 9.793 4.49199 10.543C3.828 10.5221 3.17862 10.3428 2.59799 10.02V10.072C2.59819 11.0377 2.93236 11.9736 3.54384 12.7211C4.15532 13.4685 5.00647 13.9815 5.95299 14.173C5.33661 14.34 4.6903 14.3647 4.06299 14.245C4.32986 15.0762 4.85 15.8032 5.55058 16.3241C6.25117 16.845 7.09712 17.1338 7.96999 17.15C7.10247 17.8313 6.10917 18.335 5.04687 18.6322C3.98458 18.9294 2.87412 19.0143 1.77899 18.882C3.69069 20.1114 5.91609 20.7641 8.18899 20.762C15.882 20.762 20.089 14.389 20.089 8.862C20.089 8.682 20.084 8.5 20.076 8.322C20.8949 7.73017 21.6016 6.99702 22.163 6.157L22.162 6.156Z" fill="#ABB6B7"/>
</g>
<defs>
<clipPath id="clip0_3803_3717">
<rect width="24" height="24" fill="white" transform="translate(0 0.5)"/>
</clipPath>
</defs>
</svg>
